<svg xmlns="http://www.w3.org/2000/svg" viewBox="0 0 412 354" width="412" height="354">
<defs>
<linearGradient id="grad" x1="0%" y1="0%" x2="100%" y2="100%">
<stop offset="0%" stop-color="#9D6BFF"/><stop offset="60%" stop-color="#6C2BFF"/><stop offset="100%" stop-color="#5A1FE0"/></linearGradient>
<radialGradient id="dot" cx="50%" cy="50%" r="50%"><stop offset="0%" stop-color="#fff"/><stop offset="100%" stop-color="#D9C6FF"/></radialGradient>
<linearGradient id="trailV" x1="0%" y1="0%" x2="100%" y2="0%">
<stop offset="0%" stop-color="#9D6BFF" stop-opacity="0"/><stop offset="100%" stop-color="#9D6BFF" stop-opacity="0.85"/></linearGradient>
</defs>
<g transform="translate(97.26,6.19) scale(2.4299)"><g stroke="url(#trailV)" stroke-width="6" stroke-linecap="round" opacity="0.85">
<line x1="18" y1="34" x2="34" y2="34"/><line x1="18" y1="50" x2="30" y2="50"/><line x1="18" y1="66" x2="34" y2="66"/></g>
<path d="M40,26 L66,50 L40,74" fill="none" stroke="url(#grad)" stroke-width="11" stroke-linecap="round" stroke-linejoin="round"/>
<circle cx="70" cy="50" r="5.2" fill="url(#dot)"/></g>
<g transform="translate(56.00,215.36)"><g transform="translate(-1.95,81.10) scale(0.11354) scale(1,-1)"><path d="M371.6866455078125 -9.277099609375Q334.4698486328125 -9.277099609375 310.5843505859375 7.05419921875Q286.6988525390625 23.385498046875 271.22900390625 57.9637451171875L28.7469482421875 591.6026611328125Q12.6385498046875 627.4580078125 18.9156494140625 655.0784301757812Q25.1927490234375 682.6988525390625 47.25897216796875 698.4879760742188Q69.3251953125 714.277099609375 101.5419921875 714.277099609375Q142.6744384765625 714.277099609375 163.5599365234375 696.3494262695312Q184.4454345703125 678.4217529296875 198.915283203125 643.2049560546875L402.710693359375 170.8309326171875H346.939697265625L551.01220703125 644.2049560546875Q565.843505859375 679.060302734375 586.9097290039062 696.668701171875Q607.9759521484375 714.277099609375 646.4698486328125 714.277099609375Q677.4095458984375 714.277099609375 697.9757690429688 698.4879760742188Q718.5419921875 682.6988525390625 724.1383666992188 655.0784301757812Q729.7347412109375 627.4580078125 713.6263427734375 591.6026611328125L471.144287109375 57.9637451171875Q455.6744384765625 23.385498046875 432.7889404296875 7.05419921875Q409.9034423828125 -9.277099609375 371.6866455078125 -9.277099609375Z" transform="translate(0.0,0)" fill="#FFFFFF"/><path d="M320.048095703125 -11.277099609375Q230.0240478515625 -11.277099609375 164.59637451171875 20.3614501953125Q99.168701171875 52 64.114501953125 109.95782470703125Q29.060302734375 167.9156494140625 29.060302734375 246.55419921875Q29.060302734375 322.55419921875 62.4759521484375 380.1927490234375Q95.8916015625 437.831298828125 154.5843505859375 470.65057373046875Q213.277099609375 503.4698486328125 288.1083984375 503.4698486328125Q343.3011474609375 503.4698486328125 387.993896484375 485.51202392578125Q432.6866455078125 467.55419921875 464.7408447265625 434.277099609375Q496.7950439453125 401 513.5721435546875 353.90362548828125Q530.3492431640625 306.8072509765625 530.3492431640625 248.5301513671875Q530.3492431640625 228.614501953125 519.1263427734375 219.114501953125Q507.9034423828125 209.614501953125 484.264892578125 209.614501953125H177.9515380859375V293.7469482421875H399.56640625L384.2049560546875 281.3011474609375Q384.2049560546875 317.722900390625 373.897705078125 341.060302734375Q363.5904541015625 364.397705078125 344.15667724609375 376.10858154296875Q324.722900390625 387.8194580078125 296.3011474609375 387.8194580078125Q265.156494140625 387.8194580078125 242.36126708984375 373.4278564453125Q219.5660400390625 359.0362548828125 207.57806396484375 330.87957763671875Q195.590087890625 302.722900390625 195.590087890625 260.7469482421875V252.4698486328125Q195.590087890625 181.3251953125 227.0660400390625 150.72271728515625Q258.5419921875 120.1202392578125 324.602294921875 120.1202392578125Q346.77099609375 120.1202392578125 375.439697265625 125.3431396484375Q404.1083984375 130.5660400390625 429.9156494140625 140.819091796875Q456.0240478515625 150.9034423828125 475.216796875 144.61431884765625Q494.4095458984375 138.3251953125 504.86737060546875 122.89752197265625Q515.3251953125 107.4698486328125 516.3673706054688 87.54217529296875Q517.4095458984375 67.614501953125 507.03607177734375 49.4217529296875Q496.66259765625 31.22900390625 473.55419921875 20.8675537109375Q439.1927490234375 4.614501953125 399.75897216796875 -3.331298828125Q360.3251953125 -11.277099609375 320.048095703125 -11.277099609375Z" transform="translate(702.0,0)" fill="#FFFFFF"/><path d="M239.0240478515625 -11.277099609375Q142.614501953125 -11.277099609375 97.10247802734375 40.37347412109375Q51.5904541015625 92.0240478515625 51.5904541015625 196.156494140625V624.4580078125Q51.5904541015625 668.22900390625 74.614501953125 691.2530517578125Q97.6385498046875 714.277099609375 140.4095458984375 714.277099609375Q183.1805419921875 714.277099609375 206.38531494140625 691.2530517578125Q229.590087890625 668.22900390625 229.590087890625 624.4580078125V201.5179443359375Q229.590087890625 165.09619140625 244.30096435546875 148.20458984375Q259.0118408203125 131.31298828125 281.602294921875 131.31298828125Q288.9637451171875 131.31298828125 296.602294921875 132.77081298828125Q304.2408447265625 134.2286376953125 312.5179443359375 134.590087890625Q330.3492431640625 135.31298828125 338.5419921875 122.30096435546875Q346.7347412109375 109.2889404296875 346.7347412109375 68.7950439453125Q346.7347412109375 34.216796875 332.9034423828125 16.70477294921875Q319.0721435546875 -0.8072509765625 290.3251953125 -6.3614501953125Q282.2408447265625 -7.3614501953125 267.09027099609375 -9.31927490234375Q251.939697265625 -11.277099609375 239.0240478515625 -11.277099609375Z" transform="translate(1217.0,0)" fill="#FFFFFF"/><path d="M300.77099609375 -11.277099609375Q219.0240478515625 -11.277099609375 157.9156494140625 19.722900390625Q96.8072509765625 50.722900390625 62.93377685546875 108.8614501953125Q29.060302734375 167 29.060302734375 246.277099609375Q29.060302734375 305.9156494140625 48.15667724609375 353.37347412109375Q67.2530517578125 400.831298828125 103.12652587890625 434.65057373046875Q139 468.4698486328125 189.15057373046875 485.9698486328125Q239.3011474609375 503.4698486328125 300.77099609375 503.4698486328125Q383.156494140625 503.4698486328125 443.94561767578125 472.4698486328125Q504.7347412109375 441.4698486328125 538.6082153320312 383.831298828125Q572.481689453125 326.1927490234375 572.481689453125 246.277099609375Q572.481689453125 186.6385498046875 553.3853149414062 139.0Q534.2889404296875 91.3614501953125 498.41546630859375 57.54217529296875Q462.5419921875 23.722900390625 412.39141845703125 6.222900390625Q362.2408447265625 -11.277099609375 300.77099609375 -11.277099609375ZM300.77099609375 120.1202392578125Q328.1927490234375 120.1202392578125 348.84942626953125 133.33111572265625Q369.506103515625 146.5419921875 381.49407958984375 174.37939453125Q393.4820556640625 202.216796875 393.4820556640625 246.277099609375Q393.4820556640625 312.8675537109375 367.46392822265625 342.47003173828125Q341.44580078125 372.072509765625 300.77099609375 372.072509765625Q273.98779296875 372.072509765625 253.0118408203125 359.0423583984375Q232.035888671875 346.01220703125 220.04791259765625 318.49407958984375Q208.0599365234375 290.9759521484375 208.0599365234375 246.277099609375Q208.0599365234375 180.048095703125 234.07806396484375 150.08416748046875Q260.09619140625 120.1202392578125 300.77099609375 120.1202392578125Z" transform="translate(1525.0,0)" fill="#FFFFFF"/><path d="M300.77099609375 -11.277099609375Q219.0240478515625 -11.277099609375 157.9156494140625 19.722900390625Q96.8072509765625 50.722900390625 62.93377685546875 108.8614501953125Q29.060302734375 167 29.060302734375 246.277099609375Q29.060302734375 305.9156494140625 48.15667724609375 353.37347412109375Q67.2530517578125 400.831298828125 103.12652587890625 434.65057373046875Q139 468.4698486328125 189.15057373046875 485.9698486328125Q239.3011474609375 503.4698486328125 300.77099609375 503.4698486328125Q383.156494140625 503.4698486328125 443.94561767578125 472.4698486328125Q504.7347412109375 441.4698486328125 538.6082153320312 383.831298828125Q572.481689453125 326.1927490234375 572.481689453125 246.277099609375Q572.481689453125 186.6385498046875 553.3853149414062 139.0Q534.2889404296875 91.3614501953125 498.41546630859375 57.54217529296875Q462.5419921875 23.722900390625 412.39141845703125 6.222900390625Q362.2408447265625 -11.277099609375 300.77099609375 -11.277099609375ZM300.77099609375 120.1202392578125Q328.1927490234375 120.1202392578125 348.84942626953125 133.33111572265625Q369.506103515625 146.5419921875 381.49407958984375 174.37939453125Q393.4820556640625 202.216796875 393.4820556640625 246.277099609375Q393.4820556640625 312.8675537109375 367.46392822265625 342.47003173828125Q341.44580078125 372.072509765625 300.77099609375 372.072509765625Q273.98779296875 372.072509765625 253.0118408203125 359.0423583984375Q232.035888671875 346.01220703125 220.04791259765625 318.49407958984375Q208.0599365234375 290.9759521484375 208.0599365234375 246.277099609375Q208.0599365234375 180.048095703125 234.07806396484375 150.08416748046875Q260.09619140625 120.1202392578125 300.77099609375 120.1202392578125Z" transform="translate(2087.0,0)" fill="#FFFFFF"/></g></g></svg>